<svg width="24" height="24" viewBox="0 0 24 24" fill="none" xmlns="http://www.w3.org/2000/svg">
<path d="M19.5 2H9.5C8.70435 2 7.94129 2.31607 7.37868 2.87868C6.81607 3.44129 6.5 4.20435 6.5 5V6H5.5C4.70435 6 3.94129 6.31607 3.37868 6.87868C2.81607 7.44129 2.5 8.20435 2.5 9V19C2.5 19.7956 2.81607 20.5587 3.37868 21.1213C3.94129 21.6839 4.70435 22 5.5 22H15.5C16.2956 22 17.0587 21.6839 17.6213 21.1213C18.1839 20.5587 18.5 19.7956 18.5 19V18H19.5C20.2956 18 21.0587 17.6839 21.6213 17.1213C22.1839 16.5587 22.5 15.7956 22.5 15V5C22.5 4.20435 22.1839 3.44129 21.6213 2.87868C21.0587 2.31607 20.2956 2 19.5 2ZM16.5 19C16.5 19.2652 16.3946 19.5196 16.2071 19.7071C16.0196 19.8946 15.7652 20 15.5 20H5.5C5.23478 20 4.98043 19.8946 4.79289 19.7071C4.60536 19.5196 4.5 19.2652 4.5 19V12H16.5V19ZM16.5 10H4.5V9C4.5 8.73478 4.60536 8.48043 4.79289 8.29289C4.98043 8.10536 5.23478 8 5.5 8H15.5C15.7652 8 16.0196 8.10536 16.2071 8.29289C16.3946 8.48043 16.5 8.73478 16.5 9V10ZM20.5 15C20.5 15.2652 20.3946 15.5196 20.2071 15.7071C20.0196 15.8946 19.7652 16 19.5 16H18.5V9C18.4973 8.65886 18.4364 8.32067 18.32 8H20.5V15ZM20.5 6H8.5V5C8.5 4.73478 8.60536 4.48043 8.79289 4.29289C8.98043 4.10536 9.23478 4 9.5 4H19.5C19.7652 4 20.0196 4.10536 20.2071 4.29289C20.3946 4.48043 20.5 4.73478 20.5 5V6Z" fill="#A8A8A8"/>
</svg>
