<svg width="53" height="48" viewBox="0 0 53 48" fill="none" xmlns="http://www.w3.org/2000/svg">
<rect width="53" height="48" rx="10" fill="#F4E133"/>
<path d="M27 12C20.3727 12 15 17.3727 15 24C15 30.6273 20.3727 36 27 36C33.6273 36 39 30.6273 39 24C38.9926 17.3758 33.6242 12.0074 27 12ZM37.3783 28.2039L33.9656 28.7928C34.3563 27.3602 34.5672 25.8846 34.5936 24.4H38.19C38.1449 25.7059 37.8701 26.9936 37.3783 28.2039V28.2039ZM15.81 24.4H19.4064C19.4328 25.8846 19.6438 27.3602 20.0344 28.7928L16.6217 28.2039C16.1299 26.9936 15.8551 25.7059 15.81 24.4ZM16.6217 19.7961L20.0344 19.2072C19.6438 20.6398 19.4328 22.1154 19.4064 23.6H15.81C15.8551 22.2941 16.1299 21.0064 16.6217 19.7961ZM27.4 18.4225C28.8373 18.4408 30.2711 18.5717 31.6881 18.8141L33.1 19.0576C33.5338 20.5338 33.7672 22.0615 33.7939 23.6H27.4V18.4225ZM31.8244 18.0256C30.3625 17.7758 28.883 17.6408 27.4 17.6225V12.8225C29.6932 13.0428 31.6852 15.1424 32.8141 18.198L31.8244 18.0256ZM26.6 17.6225C25.117 17.6408 23.6379 17.7758 22.176 18.0256L21.1859 18.1969C22.3148 15.1404 24.3068 13.04 26.6 12.8207V17.6225ZM22.3123 18.8141C23.7291 18.5717 25.1627 18.4408 26.6 18.4225V23.6H20.2061C20.2328 22.0615 20.4662 20.5338 20.9 19.0576L22.3123 18.8141ZM20.2061 24.4H26.6V29.5775C25.1627 29.5592 23.7289 29.4283 22.3119 29.1859L20.9 28.9424C20.4662 27.4662 20.2328 25.9385 20.2061 24.4V24.4ZM22.1756 29.9744C23.6375 30.2246 25.1168 30.3602 26.6 30.3797V35.1797C24.3068 34.9592 22.3148 32.8596 21.1859 29.8039L22.1756 29.9744ZM27.4 30.3797C28.883 30.3602 30.3621 30.2246 31.824 29.9744L32.8141 29.8031C31.6852 32.8596 29.6932 34.96 27.4 35.1793V30.3797ZM31.6877 29.1859C30.2709 29.4283 28.8373 29.5592 27.4 29.5775V24.4H33.7939C33.7672 25.9385 33.5338 27.4662 33.1 28.9424L31.6877 29.1859ZM34.5936 23.6C34.5672 22.1154 34.3563 20.6398 33.9656 19.2072L37.3783 19.7961C37.8701 21.0064 38.1449 22.2941 38.19 23.6H34.5936ZM36.9736 18.9145L33.7023 18.35C33.1143 16.4314 32.0141 14.7096 30.5199 13.3699C33.3139 14.3023 35.6309 16.2928 36.9736 18.9145ZM23.4801 13.3699C21.9859 14.7096 20.8857 16.4314 20.2977 18.35L17.0264 18.9145C18.3691 16.2928 20.6861 14.3023 23.4801 13.3699ZM17.0264 29.0855L20.2977 29.65C20.8857 31.5686 21.9859 33.2904 23.4801 34.6301C20.6861 33.6977 18.3691 31.7072 17.0264 29.0855ZM30.5199 34.6301C32.0141 33.2904 33.1143 31.5686 33.7023 29.65L36.9736 29.0855C35.6309 31.7072 33.3139 33.6977 30.5199 34.6301Z" fill="black"/>
</svg>
