<svg width="24" height="24" viewBox="0 0 24 24" fill="none" xmlns="http://www.w3.org/2000/svg">
<path d="M16.9537 9.37325V7.44976V7.16223L16.6662 7.16321L14.7427 7.17003L14.75 9.38056L16.9537 9.37325Z" fill="#F4E133"/>
<path d="M11.9406 14.4786C13.2067 14.4786 14.2374 13.4489 14.2374 12.1828C14.2374 11.6833 14.0746 11.2203 13.8022 10.8436C13.3855 10.2656 12.7067 9.88599 11.9406 9.88599C11.1745 9.88599 10.4966 10.2656 10.079 10.8436C9.80657 11.2203 9.64478 11.6833 9.64478 12.1828C9.64478 13.4489 10.6745 14.4786 11.9406 14.4786Z" fill="#F4E133"/>
<path d="M12.0005 0C5.37281 0 0 5.37183 0 11.9995C0 18.6272 5.37281 24 12.0005 24C18.6272 24 24 18.6272 24 11.9995C24 5.37183 18.6267 0 12.0005 0ZM18.4639 10.8436V16.1852C18.4639 17.575 17.3324 18.7057 15.9425 18.7057H7.93811C6.54776 18.7057 5.41715 17.575 5.41715 16.1852V10.8436V8.1808C5.41715 6.79045 6.54776 5.65984 7.93811 5.65984H15.9425C17.3324 5.65984 18.4639 6.79045 18.4639 8.1808V10.8436Z" fill="#F4E133"/>
<path d="M15.5078 12.1827C15.5078 14.1491 13.9079 15.7499 11.9405 15.7499C9.9732 15.7499 8.37427 14.1491 8.37427 12.1827C8.37427 11.7085 8.46833 11.2577 8.63597 10.8435H6.6886V16.1851C6.6886 16.8742 7.24903 17.4346 7.93811 17.4346H15.9425C16.6316 17.4346 17.192 16.8742 17.192 16.1851V10.8435H15.2437C15.4128 11.2577 15.5078 11.709 15.5078 12.1827Z" fill="#F4E133"/>
</svg>
