<svg width="25" height="24" viewBox="0 0 25 24" fill="none" xmlns="http://www.w3.org/2000/svg">
<g clip-path="url(#clip0)">
<path d="M20.9 12.66C20.7397 12.4775 20.6513 12.2429 20.6513 12C20.6513 11.7571 20.7397 11.5225 20.9 11.34L22.18 9.90002C22.3211 9.74269 22.4086 9.54472 22.4302 9.33452C22.4518 9.12433 22.4062 8.9127 22.3 8.73002L20.3 5.27002C20.1949 5.08754 20.0349 4.94289 19.8428 4.8567C19.6506 4.77051 19.4362 4.74718 19.23 4.79002L17.35 5.17002C17.1108 5.21945 16.8617 5.17961 16.6499 5.05802C16.438 4.93643 16.278 4.7415 16.2 4.51002L15.59 2.68002C15.5229 2.4814 15.3951 2.30888 15.2246 2.18686C15.0542 2.06484 14.8496 1.99948 14.64 2.00002H10.64C10.4219 1.98864 10.2061 2.04894 10.0256 2.17173C9.845 2.29452 9.70958 2.47304 9.64 2.68002L9.08 4.51002C9.002 4.7415 8.84198 4.93643 8.63012 5.05802C8.41826 5.17961 8.16922 5.21945 7.93 5.17002L6 4.79002C5.80455 4.7624 5.6053 4.79324 5.42735 4.87866C5.2494 4.96407 5.1007 5.10025 5 5.27002L3 8.73002C2.89116 8.91067 2.84223 9.1211 2.86019 9.33124C2.87815 9.54138 2.96209 9.74046 3.1 9.90002L4.37 11.34C4.53032 11.5225 4.61874 11.7571 4.61874 12C4.61874 12.2429 4.53032 12.4775 4.37 12.66L3.1 14.1C2.96209 14.2596 2.87815 14.4587 2.86019 14.6688C2.84223 14.8789 2.89116 15.0894 3 15.27L5 18.73C5.1051 18.9125 5.26512 19.0571 5.45726 19.1433C5.64939 19.2295 5.86383 19.2529 6.07 19.21L7.95 18.83C8.18922 18.7806 8.43826 18.8204 8.65012 18.942C8.86198 19.0636 9.022 19.2585 9.1 19.49L9.71 21.32C9.77958 21.527 9.915 21.7055 10.0956 21.8283C10.2761 21.9511 10.4919 22.0114 10.71 22H14.71C14.9196 22.0006 15.1242 21.9352 15.2946 21.8132C15.4651 21.6912 15.5929 21.5186 15.66 21.32L16.27 19.49C16.348 19.2585 16.508 19.0636 16.7199 18.942C16.9317 18.8204 17.1808 18.7806 17.42 18.83L19.3 19.21C19.5062 19.2529 19.7206 19.2295 19.9128 19.1433C20.1049 19.0571 20.2649 18.9125 20.37 18.73L22.37 15.27C22.4762 15.0873 22.5218 14.8757 22.5002 14.6655C22.4786 14.4553 22.3911 14.2573 22.25 14.1L20.9 12.66ZM19.41 14L20.21 14.9L18.93 17.12L17.75 16.88C17.0298 16.7328 16.2806 16.8551 15.6446 17.2238C15.0086 17.5925 14.5301 18.1819 14.3 18.88L13.92 20H11.36L11 18.86C10.7699 18.1619 10.2914 17.5725 9.65541 17.2038C9.01943 16.8351 8.27022 16.7128 7.55 16.86L6.37 17.1L5.07 14.89L5.87 13.99C6.36196 13.44 6.63394 12.7279 6.63394 11.99C6.63394 11.2521 6.36196 10.54 5.87 9.99002L5.07 9.09002L6.35 6.89002L7.53 7.13002C8.25022 7.27724 8.99943 7.1549 9.63541 6.78622C10.2714 6.41753 10.7499 5.82818 10.98 5.13002L11.36 4.00002H13.92L14.3 5.14002C14.5301 5.83818 15.0086 6.42753 15.6446 6.79622C16.2806 7.1649 17.0298 7.28724 17.75 7.14002L18.93 6.90002L20.21 9.12002L19.41 10.02C18.9236 10.5688 18.655 11.2767 18.655 12.01C18.655 12.7433 18.9236 13.4513 19.41 14ZM12.64 8.00002C11.8489 8.00002 11.0755 8.23461 10.4177 8.67414C9.75992 9.11366 9.24724 9.73838 8.94448 10.4693C8.64173 11.2002 8.56252 12.0045 8.71686 12.7804C8.8712 13.5563 9.25217 14.269 9.81158 14.8284C10.371 15.3879 11.0837 15.7688 11.8596 15.9232C12.6356 16.0775 13.4398 15.9983 14.1707 15.6955C14.9016 15.3928 15.5264 14.8801 15.9659 14.2223C16.4054 13.5645 16.64 12.7911 16.64 12C16.64 10.9392 16.2186 9.92174 15.4684 9.17159C14.7183 8.42144 13.7009 8.00002 12.64 8.00002ZM12.64 14C12.2444 14 11.8578 13.8827 11.5289 13.663C11.2 13.4432 10.9436 13.1308 10.7922 12.7654C10.6409 12.3999 10.6013 11.9978 10.6784 11.6098C10.7556 11.2219 10.9461 10.8655 11.2258 10.5858C11.5055 10.3061 11.8619 10.1156 12.2498 10.0384C12.6378 9.96128 13.0399 10.0009 13.4054 10.1523C13.7708 10.3036 14.0832 10.56 14.3029 10.8889C14.5227 11.2178 14.64 11.6045 14.64 12C14.64 12.5304 14.4293 13.0392 14.0542 13.4142C13.6791 13.7893 13.1704 14 12.64 14Z" fill="#A8A8A8"/>
</g>
<defs>
<clipPath id="clip0">
<rect width="24" height="24" fill="white" transform="translate(0.75)"/>
</clipPath>
</defs>
</svg>
