<svg width="53" height="48" viewBox="0 0 53 48" fill="none" xmlns="http://www.w3.org/2000/svg">
<rect width="53" height="48" rx="10" fill="#F4E133"/>
<path d="M33 25.18V22C32.9986 20.5831 32.4958 19.2125 31.5806 18.1308C30.6655 17.0491 29.3971 16.3261 28 16.09V15C28 14.7348 27.8946 14.4804 27.7071 14.2929C27.5196 14.1054 27.2652 14 27 14C26.7348 14 26.4804 14.1054 26.2929 14.2929C26.1054 14.4804 26 14.7348 26 15V16.09C24.6029 16.3261 23.3345 17.0491 22.4194 18.1308C21.5042 19.2125 21.0014 20.5831 21 22V25.18C20.4165 25.3863 19.911 25.7681 19.5529 26.2729C19.1949 26.7778 19.0017 27.3811 19 28V30C19 30.2652 19.1054 30.5196 19.2929 30.7071C19.4804 30.8946 19.7348 31 20 31H23.14C23.3703 31.8474 23.873 32.5954 24.5706 33.1287C25.2682 33.662 26.1219 33.951 27 33.951C27.8781 33.951 28.7318 33.662 29.4294 33.1287C30.127 32.5954 30.6297 31.8474 30.86 31H34C34.2652 31 34.5196 30.8946 34.7071 30.7071C34.8946 30.5196 35 30.2652 35 30V28C34.9983 27.3811 34.8051 26.7778 34.4471 26.2729C34.089 25.7681 33.5835 25.3863 33 25.18V25.18ZM23 22C23 20.9391 23.4214 19.9217 24.1716 19.1716C24.9217 18.4214 25.9391 18 27 18C28.0609 18 29.0783 18.4214 29.8284 19.1716C30.5786 19.9217 31 20.9391 31 22V25H23V22ZM27 32C26.651 31.9979 26.3086 31.9045 26.0068 31.729C25.7051 31.5536 25.4545 31.3023 25.28 31H28.72C28.5455 31.3023 28.2949 31.5536 27.9932 31.729C27.6914 31.9045 27.349 31.9979 27 32ZM33 29H21V28C21 27.7348 21.1054 27.4804 21.2929 27.2929C21.4804 27.1054 21.7348 27 22 27H32C32.2652 27 32.5196 27.1054 32.7071 27.2929C32.8946 27.4804 33 27.7348 33 28V29Z" fill="black"/>
</svg>
