<svg width="53" height="48" viewBox="0 0 53 48" fill="none" xmlns="http://www.w3.org/2000/svg">
<rect width="53" height="48" rx="10" fill="#F4E133"/>
<path d="M26.829 23.5609C28.4172 23.5609 29.7924 22.9913 30.9163 21.8674C32.0398 20.7436 32.6096 19.3687 32.6096 17.7803C32.6096 16.1924 32.04 14.8173 30.9161 13.6932C29.7922 12.5696 28.4171 12 26.829 12C25.2405 12 23.8656 12.5696 22.7419 13.6934C21.6182 14.8171 21.0483 16.1922 21.0483 17.7803C21.0483 19.3687 21.6182 20.7438 22.7419 21.8675C23.866 22.9911 25.2411 23.5609 26.829 23.5609V23.5609ZM23.7365 14.6878C24.5988 13.8256 25.6102 13.4064 26.829 13.4064C28.0475 13.4064 29.0592 13.8256 29.9216 14.6878C30.7839 15.5502 31.2032 16.5619 31.2032 17.7803C31.2032 18.999 30.7839 20.0105 29.9216 20.8729C29.0592 21.7353 28.0475 22.1545 26.829 22.1545C25.6106 22.1545 24.5991 21.7351 23.7365 20.8729C22.8741 20.0107 22.4548 18.999 22.4548 17.7803C22.4548 16.5619 22.8741 15.5502 23.7365 14.6878Z" fill="black"/>
<path d="M36.9435 30.4548C36.9111 29.9871 36.8456 29.477 36.7491 28.9383C36.6517 28.3956 36.5262 27.8825 36.3761 27.4136C36.2208 26.9289 36.0101 26.4503 35.7491 25.9916C35.4787 25.5155 35.1608 25.101 34.8041 24.7599C34.4312 24.403 33.9745 24.1161 33.4464 23.9068C32.9202 23.6986 32.337 23.5931 31.7131 23.5931C31.4681 23.5931 31.2312 23.6936 30.7736 23.9915C30.492 24.1752 30.1626 24.3876 29.7949 24.6225C29.4805 24.8228 29.0546 25.0105 28.5286 25.1804C28.0153 25.3465 27.4942 25.4308 26.9797 25.4308C26.4655 25.4308 25.9444 25.3465 25.4308 25.1804C24.9053 25.0107 24.4792 24.823 24.1653 24.6227C23.8011 24.39 23.4716 24.1776 23.1857 23.9914C22.7285 23.6935 22.4916 23.5929 22.2466 23.5929C21.6226 23.5929 21.0396 23.6986 20.5135 23.907C19.9858 24.1159 19.5289 24.4028 19.1556 24.76C18.7989 25.1013 18.481 25.5157 18.2108 25.9916C17.9502 26.4503 17.7393 26.9287 17.584 27.4138C17.434 27.8827 17.3086 28.3956 17.2112 28.9383C17.1145 29.4763 17.0491 29.9866 17.0167 30.4553C16.9849 30.9137 16.9688 31.3906 16.9688 31.8726C16.9688 33.1254 17.367 34.1396 18.1523 34.8876C18.928 35.6257 19.9541 35.9999 21.2023 35.9999H32.7585C34.0063 35.9999 35.0325 35.6257 35.8083 34.8876C36.5938 34.1401 36.9921 33.1256 36.9921 31.8724C36.9919 31.3888 36.9756 30.9118 36.9435 30.4548V30.4548ZM34.8386 33.8686C34.326 34.3564 33.6456 34.5935 32.7583 34.5935H21.2023C20.3148 34.5935 19.6344 34.3564 19.1221 33.8688C18.6194 33.3903 18.3752 32.7372 18.3752 31.8726C18.3752 31.4229 18.39 30.9788 18.4197 30.5526C18.4486 30.1344 18.5078 29.6749 18.5955 29.1868C18.6821 28.7047 18.7923 28.2522 18.9234 27.8426C19.0492 27.4499 19.2208 27.0609 19.4335 26.6863C19.6366 26.3292 19.8702 26.0229 20.1281 25.7761C20.3692 25.5452 20.6732 25.3562 21.0313 25.2145C21.3625 25.0834 21.7348 25.0116 22.1389 25.0008C22.1882 25.027 22.2759 25.077 22.418 25.1696C22.7071 25.3581 23.0403 25.573 23.4088 25.8083C23.824 26.0731 24.3591 26.3122 24.9983 26.5186C25.6518 26.7299 26.3183 26.8372 26.9799 26.8372C27.6414 26.8372 28.3081 26.7299 28.9612 26.5188C29.601 26.312 30.1359 26.0731 30.5517 25.8079C30.9287 25.567 31.2526 25.3582 31.5417 25.1696C31.6838 25.0772 31.7715 25.027 31.8208 25.0008C32.2251 25.0116 32.5974 25.0834 32.9288 25.2145C33.2867 25.3562 33.5907 25.5454 33.8318 25.7761C34.0897 26.0227 34.3233 26.3291 34.5264 26.6865C34.7393 27.0609 34.9111 27.45 35.0367 27.8424C35.168 28.2526 35.2784 28.7049 35.3648 29.1866C35.4523 29.6757 35.5117 30.1353 35.5406 30.5528V30.5531C35.5704 30.9777 35.5854 31.4216 35.5856 31.8726C35.5854 32.7374 35.3412 33.3903 34.8386 33.8686V33.8686Z" fill="black"/>
</svg>
